<?xml version="1.0" encoding="UTF-8"?>
<svg xmlns="http://www.w3.org/2000/svg" xmlns:xlink="http://www.w3.org/1999/xlink" width="130px" height="130px" viewBox="0 0 130 129" version="1.1">
<defs>
<clipPath id="clip1">
  <path d="M 14.457031 12.964844 L 111.257812 12.964844 L 111.257812 120.234375 L 14.457031 120.234375 Z M 14.457031 12.964844 "/>
</clipPath>
</defs>
<g id="surface1">
<path style="fill-rule:evenodd;fill:rgb(41.960785%,73.333335%,68.235296%);fill-opacity:1;stroke-width:46.979198;stroke-linecap:butt;stroke-linejoin:miter;stroke:rgb(100%,100%,100%);stroke-opacity:1;stroke-miterlimit:8;" d="M 1576.504387 2470.025073 L 0.0305889 2470.025073 L 0.0305889 -0.0250727 L 2470.969411 -0.0250727 L 2470.969411 1580.111919 C 2470.969411 2073.695131 2069.057873 2470.025073 1576.504387 2470.025073 " transform="matrix(0.0516283,0,0,-0.0512515,1.213264,127.79559)"/>
<g clip-path="url(#clip1)" clip-rule="nonzero">
<path style=" stroke:none;fill-rule:evenodd;fill:rgb(100%,100%,100%);fill-opacity:1;" d="M 108.707031 72.796875 C 109.3125 72.179688 109.65625 71.308594 109.554688 70.355469 C 109.402344 68.933594 108.226562 67.792969 106.789062 67.667969 C 105.730469 67.574219 104.773438 68.019531 104.160156 68.757812 C 104.074219 67.171875 102.664062 65.933594 101.003906 66.132812 C 99.746094 66.28125 98.726562 67.277344 98.558594 68.523438 C 98.453125 69.285156 98.664062 69.992188 99.074219 70.550781 C 97.75 71.542969 96.890625 73.121094 96.890625 74.894531 C 96.890625 75.066406 96.902344 75.234375 96.917969 75.402344 L 96.890625 75.375 C 84.367188 69.324219 76.78125 83.554688 76.78125 83.554688 C 71.148438 91.859375 69.199219 103.167969 69.199219 103.167969 C 67.554688 102.039062 65.5625 101.375 63.410156 101.375 C 61.464844 101.375 59.644531 101.917969 58.101562 102.855469 L 58.097656 102.855469 C 55.816406 90.820312 49.449219 81.96875 49.449219 81.96875 C 64.082031 78.464844 70.8125 72.511719 70.8125 72.511719 C 80.78125 65.082031 75.394531 55.011719 75.394531 55.011719 C 85.953125 52.984375 93.585938 47.96875 97.589844 44.75 C 100.785156 42.179688 102.847656 38.449219 103.1875 34.378906 C 103.363281 32.265625 103.089844 29.953125 101.863281 27.796875 C 102.140625 27.839844 102.425781 27.863281 102.714844 27.863281 C 104.382812 27.863281 105.875 27.125 106.882812 25.960938 C 107.386719 26.203125 107.96875 26.316406 108.582031 26.238281 C 110.023438 26.0625 111.15625 24.875 111.25 23.4375 C 111.347656 21.964844 110.382812 20.699219 109.042969 20.320312 C 109.648438 19.703125 109.992188 18.828125 109.890625 17.878906 C 109.738281 16.453125 108.5625 15.316406 107.128906 15.191406 C 106.066406 15.097656 105.109375 15.542969 104.496094 16.28125 C 104.410156 14.695312 103 13.457031 101.339844 13.65625 C 100.082031 13.804688 99.066406 14.800781 98.894531 16.042969 C 98.792969 16.808594 99 17.515625 99.410156 18.074219 C 98.085938 19.066406 97.230469 20.644531 97.230469 22.417969 C 97.230469 22.75 97.261719 23.074219 97.316406 23.390625 C 86.480469 17.019531 79.097656 26.96875 79.097656 26.96875 C 72.199219 33.726562 69.003906 48.75 69.003906 48.75 C 62.863281 45.578125 57.019531 49 57.019531 49 C 57.101562 46.664062 55.546875 42.242188 55.546875 42.242188 C 55.546875 42.242188 48.101562 21.710938 38.261719 20.75 C 34.027344 20.335938 30.738281 21.472656 28.363281 22.902344 C 28.441406 22.53125 28.484375 22.144531 28.484375 21.75 C 28.484375 19.976562 27.628906 18.398438 26.304688 17.40625 C 26.714844 16.847656 26.921875 16.140625 26.820312 15.375 C 26.648438 14.132812 25.632812 13.136719 24.375 12.988281 C 22.714844 12.789062 21.300781 14.027344 21.21875 15.613281 C 20.605469 14.875 19.644531 14.429688 18.585938 14.523438 C 17.148438 14.648438 15.976562 15.785156 15.824219 17.210938 C 15.722656 18.164062 16.066406 19.035156 16.671875 19.652344 C 15.332031 20.03125 14.363281 21.296875 14.460938 22.769531 C 14.558594 24.207031 15.691406 25.394531 17.132812 25.570312 C 17.746094 25.648438 18.324219 25.535156 18.832031 25.292969 C 19.839844 26.457031 21.332031 27.195312 22.996094 27.195312 C 23.234375 27.195312 23.472656 27.179688 23.703125 27.152344 C 23.683594 27.179688 23.671875 27.195312 23.671875 27.195312 C 19.800781 39.027344 27.160156 43.785156 27.160156 43.785156 C 33.804688 50.835938 50.792969 54.96875 50.792969 54.96875 C 45.117188 61.980469 41.964844 74.75 41.964844 74.75 C 39.0625 73.289062 34.644531 74.164062 34.644531 74.164062 C 34.644531 74.164062 32.558594 74.128906 29.808594 76.0625 C 29.890625 75.6875 29.9375 75.296875 29.9375 74.894531 C 29.9375 73.121094 29.078125 71.542969 27.753906 70.550781 C 28.164062 69.992188 28.375 69.285156 28.269531 68.519531 C 28.101562 67.277344 27.082031 66.28125 25.824219 66.132812 C 24.164062 65.933594 22.753906 67.171875 22.667969 68.757812 C 22.054688 68.019531 21.097656 67.574219 20.039062 67.667969 C 18.601562 67.789062 17.429688 68.933594 17.273438 70.355469 C 17.171875 71.308594 17.515625 72.179688 18.121094 72.796875 C 16.78125 73.175781 15.816406 74.4375 15.914062 75.914062 C 16.007812 77.351562 17.140625 78.539062 18.582031 78.714844 C 19.199219 78.792969 19.777344 78.679688 20.28125 78.4375 C 21.289062 79.601562 22.78125 80.339844 24.449219 80.339844 C 24.886719 80.339844 25.316406 80.289062 25.726562 80.191406 C 21.261719 86.300781 24.847656 93.570312 24.847656 93.570312 C 31.113281 104.042969 51.59375 109.261719 51.59375 109.261719 C 50.164062 111.972656 49.910156 114.769531 49.910156 114.769531 C 46.042969 111.640625 39.820312 112.976562 39.820312 112.976562 C 34.648438 114.601562 33.929688 120.234375 33.929688 120.234375 L 92.34375 120.234375 C 92.46875 117.773438 90.871094 115.480469 90.871094 115.480469 C 86.246094 108.800781 76.53125 114.601562 76.53125 114.601562 C 76.53125 111.933594 75.5625 109.71875 75.5625 109.71875 C 90.199219 106.214844 98.566406 98.078125 98.566406 98.078125 C 107.859375 91.234375 101.632812 80.289062 101.632812 80.289062 C 101.878906 80.324219 102.125 80.339844 102.378906 80.339844 C 104.046875 80.339844 105.539062 79.601562 106.546875 78.4375 C 107.050781 78.679688 107.632812 78.792969 108.246094 78.714844 C 109.6875 78.539062 110.820312 77.351562 110.914062 75.914062 C 111.011719 74.4375 110.046875 73.175781 108.707031 72.796875 Z M 108.707031 72.796875 "/>
</g>
</g>
</svg>
