<svg id="Capa_1" data-name="Capa 1" xmlns="http://www.w3.org/2000/svg" viewBox="0 0 2467 2467"><defs><style>.cls-1{fill:#ff4438;}.cls-2{fill:#fff;}</style></defs><title>1.7 Suburbano Cuautitlán</title><g id="_01-Cuautitlan" data-name="01-Cuautitlan"><path class="cls-1" d="M1233.5,0C552.11,0,0,552.11,0,1233.5V2467H1233.5c681.38,0,1233.5-552.36,1233.5-1233.5C2467,552.11,1914.88,0,1233.5,0"/><path class="cls-2" d="M1233.5,229.85c-554.09,0-1003.33,449.24-1003.33,1003.58V2236.75H1233.5c554.09,0,1003.33-449.24,1003.33-1003.32,0-554.34-449.24-1003.58-1003.33-1003.58m0,1908.22c-499.32,0-904.65-405.08-904.65-904.64C328.85,734.11,734.18,329,1233.5,329c499.57,0,904.65,405.09,904.65,904.41,0,499.56-405.08,904.64-904.65,904.64"/><path class="cls-2" d="M1306.52,1226.53c-1.24,37.25-29.35,67.11-66.86,71.06-2,0-4.19.24-6.16.24s-4.2-.24-6.17-.24c-37.49-3.95-65.62-33.81-66.86-71.06-1.47-43.9,19.74-66.85,73-77.21C1286.79,1159.68,1308,1182.63,1306.52,1226.53Zm630.57-4.21c-14.31,34-42.69,51.07-79.69,61.93,0,8.38.25,17.27-.24,26.14-1.23,40.22-25.91,70.06-62.42,76.23-36,5.68-69.33-15-83.63-52.55-2-4.68-2.71-9.86-5.18-18.74-96.22-1.48-192.42,0-285.43,8.14-23.69,26.4-45.64,50.82-71.79,80.18-4.45,241-8.89,488.7-13.33,741.08l-101.88,50.82-101.89-50.82c-4.44-252.38-8.89-500-13.33-741.08-26.14-29.36-48.09-53.78-71.78-80.18-93-8.14-189.22-9.62-285.44-8.14-2.45,8.88-3.21,14.06-5.18,18.74-14.3,37.51-47.61,58.23-83.63,52.55-36.51-6.17-61.17-36-62.41-76.23-.5-8.87-.24-17.76-.24-26.14-37-10.86-65.38-27.89-79.68-61.93,16.27-36,47.85-49.09,79.18-60.68,1.73-64.89,20.72-95,62.91-102.39,41.2-7.4,68.59,15,93.25,74.5,60.44-1.48,61.92-1.48,122.36-2.71,12.09-35.52,26.65-65.12,67.85-65.12,37.49,0,57.73,21.71,68.09,55.5h16l81.9-81.9V886.81c-8.87-3.95-19.48-8.63-28.37-12.83-16.77-38.23-14.8-74.5,5.44-92,8.63-2,18.74-4.2,29.84-6.67-.24-8.87-.74-16.27-1-22.93-11.35-3.7-20.23-6.17-28.86-9.38-36.77-13.33-58.23-41-56.75-73,1.49-31.32,26.15-59.69,63.4-67.33,18.51-4,38.49-.74,58.47-.74,9.38-39.72,30.6-68.09,69.82-83.89,39.23,15.8,60.44,44.17,69.81,83.89,20,0,40-3.21,58.47.74,37.25,7.64,61.93,36,63.4,67.33,1.48,32.07-20,59.7-56.73,73-8.65,3.21-17.52,5.68-28.87,9.38-.25,6.66-.74,14.06-1,22.93,11.11,2.47,21.21,4.7,29.86,6.67,20.22,17.52,22.19,53.79,5.42,92-8.89,4.2-19.49,8.88-28.37,12.83v160.36c28.86,28.86,45.4,45.38,74.26,74.25h23.69c10.36-33.79,30.58-55.5,68.09-55.5,41.19,0,55.74,29.6,67.83,65.12,60.44,1.23,61.93,1.23,122.37,2.71,24.66-59.45,52-81.9,93.25-74.5,42.18,7.4,61.18,37.5,62.91,102.39C1889.22,1173.23,1920.81,1186.3,1937.09,1222.32Zm-561.25,2c2-83.87-77.46-142.59-140.62-143.33h-3.45c-63.15.74-142.59,59.46-140.62,143.33,1.73,76.73,66.12,142.11,142.35,142.59C1309.72,1366.4,1374.12,1301,1375.84,1224.29Z"/></g></svg>