<?xml version="1.0" encoding="UTF-8"?>
<svg xmlns="http://www.w3.org/2000/svg" xmlns:xlink="http://www.w3.org/1999/xlink" width="130px" height="130px" viewBox="0 0 130 129" version="1.1">
<g id="surface1">
<path style="fill-rule:evenodd;fill:rgb(31.764707%,18.431373%,18.039216%);fill-opacity:1;stroke-width:46.979198;stroke-linecap:butt;stroke-linejoin:miter;stroke:rgb(100%,100%,100%);stroke-opacity:1;stroke-miterlimit:8;" d="M 1576.504387 2470.025073 L 0.0305889 2470.025073 L 0.0305889 -0.0250727 L 2470.969411 -0.0250727 L 2470.969411 1580.111919 C 2470.969411 2073.695131 2069.057873 2470.025073 1576.504387 2470.025073 " transform="matrix(0.0516283,0,0,-0.0512515,1.213264,127.79559)"/>
<path style=" stroke:none;fill-rule:evenodd;fill:rgb(100%,100%,100%);fill-opacity:1;" d="M 30.808594 41.207031 L 8.207031 116.648438 L 11.164062 116.648438 L 33.765625 41.207031 Z M 30.808594 41.207031 "/>
<path style=" stroke:none;fill-rule:evenodd;fill:rgb(100%,100%,100%);fill-opacity:1;" d="M 37.375 26.855469 C 38.914062 26.855469 40.164062 25.625 40.164062 24.105469 C 40.164062 23.269531 39.78125 22.519531 39.183594 22.015625 L 41.820312 18.183594 L 41.101562 11.839844 L 36.109375 18.183594 L 36.605469 21.464844 C 35.441406 21.796875 34.589844 22.851562 34.589844 24.105469 C 34.589844 25.625 35.839844 26.855469 37.375 26.855469 Z M 37.375 26.855469 "/>
<path style=" stroke:none;fill-rule:evenodd;fill:rgb(100%,100%,100%);fill-opacity:1;" d="M 16.640625 38.132812 C 19.425781 38.132812 22.097656 37.03125 24.070312 35.074219 C 25.761719 33.394531 28.054688 32.453125 30.445312 32.453125 L 36.382812 32.453125 L 37.121094 29.980469 L 29.175781 29.980469 C 27.023438 29.980469 24.960938 30.835938 23.441406 32.351562 C 21.339844 34.304688 18.570312 35.386719 15.691406 35.386719 L 15.320312 35.386719 L 16.554688 36.613281 L 15.023438 38.128906 L 16.640625 38.128906 Z M 16.640625 38.132812 "/>
<path style=" stroke:none;fill-rule:evenodd;fill:rgb(100%,100%,100%);fill-opacity:1;" d="M 17.390625 43.71875 C 20.863281 43.71875 24.195312 42.347656 26.652344 39.914062 C 27.804688 38.773438 29.367188 38.128906 30.996094 38.128906 L 34.699219 38.128906 L 35.46875 35.570312 L 31.171875 35.570312 C 29.136719 35.570312 27.183594 36.371094 25.746094 37.796875 C 23.53125 39.992188 20.53125 41.222656 17.398438 41.222656 L 13.421875 41.222656 L 14.679688 42.472656 L 13.421875 43.71875 Z M 17.390625 43.71875 "/>
<path style=" stroke:none;fill-rule:evenodd;fill:rgb(100%,100%,100%);fill-opacity:1;" d="M 60.722656 29.980469 L 40.324219 29.980469 L 28.691406 68.835938 C 27.824219 71.722656 30.003906 74.621094 33.035156 74.621094 L 53.433594 74.621094 L 65.066406 35.769531 C 65.929688 32.882812 63.753906 29.980469 60.722656 29.980469 Z M 60.722656 29.980469 "/>
<path style=" stroke:none;fill-rule:evenodd;fill:rgb(100%,100%,100%);fill-opacity:1;" d="M 116.066406 43.511719 L 95.667969 43.511719 L 83.878906 82.832031 C 83.015625 85.714844 85.195312 88.613281 88.226562 88.613281 L 108.625 88.613281 L 120.414062 49.292969 C 121.277344 46.410156 119.097656 43.511719 116.066406 43.511719 Z M 116.066406 43.511719 "/>
<path style=" stroke:none;fill-rule:evenodd;fill:rgb(100%,100%,100%);fill-opacity:1;" d="M 73.675781 59.117188 C 73.640625 59.109375 73.605469 59.097656 73.570312 59.085938 C 73.433594 59.046875 73.269531 58.980469 73.097656 58.875 C 72.789062 58.679688 72.601562 58.445312 72.5 58.296875 C 72.347656 58.082031 72.082031 57.769531 71.667969 57.492188 C 71.316406 57.261719 70.988281 57.144531 70.75 57.078125 C 70.597656 57.03125 69.433594 56.683594 68.71875 57.320312 C 68.628906 57.398438 68.539062 57.503906 68.453125 57.640625 C 68.34375 57.816406 68.253906 58.011719 68.199219 58.21875 C 68.355469 58.160156 68.542969 58.101562 68.757812 58.058594 C 69.121094 57.988281 69.4375 57.988281 69.671875 58.007812 C 70.082031 58.058594 70.8125 58.203125 71.539062 58.707031 C 71.910156 58.964844 72.179688 59.246094 72.367188 59.476562 C 72.484375 59.472656 72.675781 59.480469 72.894531 59.570312 C 73.042969 59.628906 73.152344 59.707031 73.226562 59.765625 L 73.347656 59.886719 C 73.480469 60.019531 73.691406 60.054688 73.859375 59.964844 C 73.863281 59.960938 73.871094 59.957031 73.878906 59.953125 C 73.992188 59.886719 74.046875 59.785156 74.066406 59.742188 C 74.078125 59.695312 74.113281 59.554688 74.046875 59.40625 C 73.953125 59.195312 73.742188 59.132812 73.675781 59.117188 Z M 73.675781 59.117188 "/>
<path style=" stroke:none;fill-rule:evenodd;fill:rgb(100%,100%,100%);fill-opacity:1;" d="M 88.339844 36.644531 L 67.941406 36.644531 L 56.15625 75.964844 C 55.292969 78.847656 57.46875 81.746094 60.503906 81.746094 L 80.902344 81.746094 L 92.6875 42.425781 C 93.554688 39.542969 91.375 36.644531 88.339844 36.644531 Z M 67.199219 62.566406 C 66.832031 62.730469 66.613281 62.972656 66.511719 63.101562 C 66.5625 62.9375 66.644531 62.742188 66.777344 62.539062 C 67.105469 62.042969 67.550781 61.800781 67.785156 61.699219 C 67.988281 61.636719 68.515625 61.503906 69.066406 61.746094 C 69.21875 61.808594 69.339844 61.890625 69.4375 61.972656 C 69.535156 62.050781 69.628906 62.128906 69.726562 62.214844 C 69.902344 62.367188 70.070312 62.519531 70.230469 62.671875 C 70.308594 62.722656 70.476562 62.820312 70.710938 62.839844 C 70.9375 62.863281 71.113281 62.804688 71.203125 62.769531 C 71.328125 62.695312 71.53125 62.554688 71.699219 62.308594 C 71.964844 61.925781 71.976562 61.53125 71.972656 61.378906 C 71.972656 61.125 72.179688 60.914062 72.441406 60.914062 L 72.554688 60.914062 C 72.8125 60.914062 73.023438 61.125 73.023438 61.378906 L 73.023438 61.488281 C 72.996094 61.730469 72.921875 62.121094 72.699219 62.539062 C 72.515625 62.882812 72.292969 63.128906 72.128906 63.28125 C 72.023438 63.382812 71.867188 63.511719 71.65625 63.621094 C 71.386719 63.761719 71.136719 63.8125 70.96875 63.835938 C 70.8125 63.84375 70.53125 63.835938 70.214844 63.707031 C 69.882812 63.574219 69.671875 63.375 69.5625 63.257812 C 69.4375 63.109375 69.230469 62.894531 68.917969 62.714844 C 68.585938 62.519531 68.273438 62.441406 68.074219 62.40625 C 67.914062 62.398438 67.574219 62.394531 67.199219 62.566406 Z M 81.808594 65.730469 C 81.800781 65.839844 81.765625 66.058594 81.617188 66.285156 C 81.46875 66.503906 81.289062 66.621094 81.191406 66.671875 C 81.082031 66.722656 80.890625 66.789062 80.644531 66.785156 C 80.566406 66.78125 80.496094 66.773438 80.433594 66.761719 C 80.363281 67.179688 79.996094 67.582031 79.851562 67.730469 C 79.753906 67.828125 79.382812 68.167969 78.792969 68.214844 C 78.246094 68.253906 77.851562 68.019531 77.730469 67.941406 L 76.640625 67.351562 L 76.640625 67.832031 C 76.640625 68.074219 76.441406 68.273438 76.199219 68.273438 L 73.921875 68.273438 C 73.675781 68.273438 73.480469 68.074219 73.480469 67.832031 L 73.480469 67.351562 L 72.386719 67.941406 C 72.265625 68.019531 71.871094 68.253906 71.328125 68.214844 C 70.734375 68.167969 70.363281 67.828125 70.265625 67.730469 C 70.125 67.582031 69.757812 67.179688 69.6875 66.761719 C 69.621094 66.773438 69.550781 66.78125 69.476562 66.785156 C 69.230469 66.789062 69.035156 66.722656 68.925781 66.671875 C 68.832031 66.621094 68.648438 66.503906 68.5 66.285156 C 68.351562 66.058594 68.316406 65.839844 68.308594 65.730469 C 68.300781 65.671875 68.277344 65.328125 68.527344 65.039062 C 68.730469 64.804688 68.992188 64.75 69.070312 64.738281 C 69.175781 64.734375 69.339844 64.742188 69.511719 64.824219 C 69.933594 65.015625 70.058594 65.449219 70.078125 65.523438 L 70.121094 65.671875 C 70.152344 65.792969 70.289062 65.855469 70.410156 65.808594 C 70.457031 65.789062 70.507812 65.769531 70.566406 65.757812 C 70.808594 65.703125 71.007812 65.75 71.097656 65.777344 C 71.199219 65.800781 71.320312 65.835938 71.445312 65.886719 C 71.558594 65.933594 71.660156 65.980469 71.746094 66.03125 C 72.109375 66.226562 72.476562 66.425781 72.839844 66.625 C 73.128906 66.78125 73.480469 66.574219 73.480469 66.25 L 73.480469 65.777344 C 73.480469 65.535156 73.675781 65.339844 73.921875 65.339844 L 76.199219 65.339844 C 76.441406 65.339844 76.640625 65.535156 76.640625 65.777344 L 76.640625 66.25 C 76.640625 66.574219 76.992188 66.78125 77.28125 66.625 C 77.644531 66.425781 78.011719 66.226562 78.375 66.03125 C 78.460938 65.980469 78.558594 65.933594 78.671875 65.886719 C 78.800781 65.835938 78.917969 65.800781 79.023438 65.777344 C 79.113281 65.75 79.3125 65.703125 79.554688 65.757812 C 79.609375 65.769531 79.664062 65.789062 79.710938 65.808594 C 79.828125 65.855469 79.964844 65.792969 80 65.671875 L 80.039062 65.523438 C 80.058594 65.449219 80.183594 65.015625 80.605469 64.824219 C 80.78125 64.742188 80.945312 64.734375 81.050781 64.738281 C 81.128906 64.75 81.390625 64.804688 81.59375 65.039062 C 81.84375 65.328125 81.816406 65.671875 81.8125 65.730469 Z M 84.476562 58.308594 C 84.472656 58.414062 84.449219 58.613281 84.332031 58.824219 C 84.238281 58.996094 84.117188 59.109375 84.039062 59.171875 C 83.953125 59.117188 83.785156 59.003906 83.65625 58.796875 C 83.523438 58.585938 83.492188 58.386719 83.484375 58.285156 C 83.484375 58.378906 83.476562 58.585938 83.351562 58.804688 C 83.242188 59.003906 83.089844 59.117188 83.011719 59.171875 C 82.921875 59.101562 82.777344 58.972656 82.660156 58.769531 C 82.542969 58.566406 82.507812 58.375 82.492188 58.261719 C 82.492188 58.371094 82.472656 58.609375 82.316406 58.851562 C 82.210938 59.015625 82.085938 59.113281 82.003906 59.171875 C 81.917969 59.105469 81.78125 58.984375 81.671875 58.792969 C 81.609375 58.679688 81.570312 58.570312 81.542969 58.472656 C 81.515625 58.363281 81.511719 58.246094 81.527344 58.132812 C 81.539062 58 81.542969 57.789062 81.441406 57.558594 C 81.433594 57.546875 81.429688 57.535156 81.421875 57.523438 C 81.289062 57.242188 81.03125 57.042969 80.730469 56.96875 C 80.644531 56.949219 80.550781 56.933594 80.449219 56.921875 C 80.253906 56.90625 80.082031 56.921875 79.945312 56.945312 C 79.730469 56.984375 79.535156 57.089844 79.394531 57.253906 C 79.34375 57.308594 79.296875 57.378906 79.257812 57.457031 C 79.101562 57.796875 79.203125 58.105469 79.226562 58.164062 C 79.28125 58.320312 79.363281 58.515625 79.492188 58.722656 C 79.503906 58.738281 79.511719 58.753906 79.523438 58.769531 C 79.714844 59.058594 79.972656 59.300781 80.265625 59.484375 C 80.484375 59.621094 80.679688 59.742188 80.855469 59.851562 C 80.96875 59.921875 81.082031 59.988281 81.238281 60.066406 C 81.445312 60.164062 81.625 60.230469 81.75 60.269531 C 81.992188 60.304688 82.269531 60.371094 82.5625 60.476562 C 82.632812 60.503906 82.699219 60.53125 82.765625 60.558594 C 82.921875 60.625 83.058594 60.726562 83.164062 60.855469 C 83.203125 60.902344 83.238281 60.960938 83.273438 61.023438 C 83.414062 61.289062 83.386719 61.539062 83.375 61.628906 C 83.269531 61.664062 83.050781 61.71875 82.777344 61.675781 C 82.535156 61.632812 82.363281 61.53125 82.269531 61.46875 C 82.367188 61.546875 82.550781 61.714844 82.664062 61.988281 C 82.753906 62.207031 82.769531 62.398438 82.765625 62.515625 C 82.664062 62.550781 82.496094 62.59375 82.285156 62.574219 C 81.976562 62.550781 81.765625 62.410156 81.671875 62.34375 C 81.765625 62.417969 81.933594 62.578125 82.046875 62.839844 C 82.148438 63.078125 82.15625 63.289062 82.152344 63.40625 C 82.058594 63.4375 81.875 63.480469 81.648438 63.445312 C 81.402344 63.40625 81.226562 63.292969 81.132812 63.21875 C 81.230469 63.304688 81.394531 63.46875 81.484375 63.726562 C 81.574219 63.976562 81.558594 64.1875 81.542969 64.296875 C 81.453125 64.328125 81.253906 64.386719 81.007812 64.339844 C 80.730469 64.289062 80.539062 64.152344 80.472656 64.089844 C 79.984375 63.667969 79.460938 63.144531 78.921875 62.527344 C 78.527344 62.078125 78.191406 61.640625 77.902344 61.226562 C 77.859375 61.167969 77.765625 61.179688 77.742188 61.25 L 77.738281 61.257812 C 77.621094 61.613281 77.34375 61.890625 76.988281 62.015625 C 76.953125 62.015625 76.804688 62.007812 76.664062 62.113281 C 76.519531 62.21875 76.488281 62.371094 76.480469 62.40625 C 76.472656 62.453125 76.460938 62.554688 76.5 62.671875 C 76.523438 62.75 76.566406 62.8125 76.601562 62.855469 C 76.644531 62.902344 76.695312 62.9375 76.753906 62.957031 C 76.90625 63.015625 77.175781 63.144531 77.289062 63.414062 C 77.300781 63.445312 77.3125 63.480469 77.320312 63.519531 C 77.335938 63.558594 77.429688 63.867188 77.238281 64.15625 C 77.035156 64.472656 76.675781 64.496094 76.640625 64.5 L 76.609375 64.5 C 76.640625 64.40625 76.660156 64.304688 76.660156 64.199219 C 76.660156 63.675781 76.210938 63.25 75.675781 63.285156 C 75.230469 63.3125 74.863281 63.660156 74.816406 64.101562 C 74.800781 64.242188 74.816406 64.378906 74.859375 64.5 L 74.84375 64.5 C 74.777344 64.496094 74.660156 64.476562 74.535156 64.40625 C 74.378906 64.316406 74.296875 64.1875 74.261719 64.128906 C 74.230469 64.070312 74.191406 63.988281 74.167969 63.882812 C 74.140625 63.769531 74.140625 63.671875 74.144531 63.605469 C 74.089844 63.59375 74 63.582031 73.890625 63.609375 C 73.835938 63.621094 73.789062 63.644531 73.746094 63.667969 C 73.585938 63.757812 73.484375 63.921875 73.464844 64.101562 C 73.460938 64.128906 73.460938 64.160156 73.460938 64.191406 C 73.460938 64.382812 73.550781 64.519531 73.585938 64.570312 C 73.527344 64.582031 73.402344 64.597656 73.261719 64.546875 C 73.054688 64.472656 72.960938 64.308594 72.9375 64.265625 C 72.902344 64.214844 72.722656 63.941406 72.800781 63.59375 C 72.800781 63.582031 72.804688 63.570312 72.808594 63.558594 C 72.867188 63.320312 73.042969 63.132812 73.269531 63.035156 C 73.371094 62.992188 73.488281 62.953125 73.625 62.921875 C 73.878906 62.863281 74.101562 62.867188 74.253906 62.878906 C 74.441406 62.902344 74.933594 62.933594 75.324219 62.617188 C 75.421875 62.539062 75.5 62.4375 75.554688 62.324219 C 75.636719 62.160156 75.71875 61.925781 75.75 61.640625 C 75.777344 61.398438 75.753906 61.1875 75.726562 61.035156 C 75.714844 60.949219 75.679688 60.769531 75.546875 60.601562 C 75.328125 60.324219 75.011719 60.28125 74.945312 60.273438 C 74.886719 60.269531 74.664062 60.277344 74.46875 60.441406 C 74.386719 60.507812 74.332031 60.585938 74.292969 60.65625 C 74.253906 60.734375 74.230469 60.816406 74.21875 60.90625 C 74.199219 61.050781 74.160156 61.234375 74.070312 61.429688 C 74.015625 61.558594 73.953125 61.664062 73.890625 61.75 C 73.851562 61.804688 73.765625 61.90625 73.625 61.980469 C 73.488281 62.050781 73.363281 62.066406 73.292969 62.070312 C 73.347656 61.980469 73.445312 61.789062 73.457031 61.53125 C 73.464844 61.316406 73.410156 61.144531 73.371094 61.050781 C 73.34375 60.976562 73.234375 60.742188 72.96875 60.585938 C 72.667969 60.410156 72.371094 60.460938 72.300781 60.472656 C 72.203125 60.5 71.921875 60.582031 71.699219 60.84375 C 71.445312 61.152344 71.4375 61.492188 71.4375 61.582031 C 71.371094 61.503906 71.25 61.339844 71.195312 61.101562 C 71.140625 60.878906 71.164062 60.691406 71.1875 60.589844 C 71.203125 60.492188 71.238281 60.371094 71.300781 60.234375 C 71.347656 60.136719 71.398438 60.058594 71.449219 59.996094 C 71.332031 59.828125 71.097656 59.542969 70.710938 59.316406 C 70.359375 59.109375 70.027344 59.039062 69.832031 59.015625 C 69.523438 58.984375 69.136719 58.980469 68.695312 59.050781 C 68.472656 59.085938 68.269531 59.136719 68.09375 59.195312 C 68.078125 59.257812 68.070312 59.324219 68.070312 59.390625 C 68.070312 59.519531 68.097656 59.640625 68.148438 59.753906 C 68.117188 59.753906 68.085938 59.757812 68.054688 59.757812 C 67.671875 59.757812 67.332031 59.566406 67.132812 59.273438 C 66.914062 59.308594 66.582031 59.335938 66.1875 59.261719 C 65.746094 59.179688 65.414062 59.003906 65.21875 58.882812 C 65.054688 58.746094 64.828125 58.527344 64.636719 58.203125 C 64.484375 57.949219 64.402344 57.707031 64.355469 57.527344 C 64.339844 57.308594 64.335938 57.050781 64.367188 56.761719 C 64.390625 56.527344 64.429688 56.320312 64.476562 56.140625 C 64.527344 55.925781 64.582031 55.714844 64.636719 55.5 L 64.742188 54.972656 C 64.804688 54.855469 64.871094 54.742188 64.941406 54.625 C 65.195312 54.199219 65.46875 53.8125 65.746094 53.46875 C 65.910156 53.261719 66.203125 53.214844 66.421875 53.359375 L 66.625 53.492188 C 66.527344 53.519531 66.027344 53.667969 65.957031 54.015625 C 65.945312 54.054688 65.945312 54.101562 65.949219 54.152344 C 65.933594 54.355469 65.917969 54.554688 65.902344 54.761719 C 65.835938 54.96875 66.101562 55.074219 66.203125 54.910156 L 66.660156 54.171875 L 66.898438 54.195312 L 66.542969 55.523438 C 66.484375 55.734375 66.324219 55.902344 66.113281 55.972656 C 66.027344 56.003906 65.933594 56.046875 65.839844 56.113281 C 65.589844 56.292969 65.496094 56.527344 65.464844 56.613281 C 65.414062 56.714844 65.328125 56.929688 65.34375 57.207031 C 65.355469 57.453125 65.441406 57.636719 65.492188 57.734375 C 65.546875 57.828125 65.648438 57.976562 65.824219 58.105469 C 66.015625 58.253906 66.207031 58.308594 66.316406 58.332031 C 66.40625 58.351562 66.554688 58.371094 66.726562 58.34375 C 66.839844 58.328125 66.933594 58.296875 67.003906 58.265625 C 67.03125 58.191406 67.066406 58.121094 67.109375 58.054688 C 67.132812 58.019531 67.117188 57.96875 67.074219 57.957031 C 66.855469 57.878906 66.699219 57.671875 66.699219 57.429688 L 66.699219 57.363281 C 66.703125 57.269531 66.714844 57.15625 66.738281 57.03125 C 66.769531 56.882812 66.816406 56.757812 66.859375 56.65625 C 66.890625 56.589844 66.941406 56.46875 66.953125 56.308594 C 66.960938 56.148438 66.921875 56.023438 66.894531 55.957031 C 66.925781 55.960938 66.980469 55.96875 67.039062 56 C 67.109375 56.039062 67.152344 56.089844 67.167969 56.117188 L 67.171875 56.121094 C 67.171875 56.101562 67.167969 56.085938 67.167969 56.066406 C 67.167969 55.859375 67.257812 55.675781 67.398438 55.542969 C 67.398438 55.542969 67.398438 55.542969 67.402344 55.542969 C 67.414062 55.53125 67.429688 55.519531 67.445312 55.507812 C 67.519531 55.441406 67.605469 55.351562 67.6875 55.226562 C 67.792969 55.066406 67.84375 54.914062 67.867188 54.808594 C 67.894531 54.824219 67.953125 54.863281 67.992188 54.9375 C 68.015625 54.984375 68.023438 55.027344 68.023438 55.054688 C 68.125 54.9375 68.285156 54.773438 68.519531 54.636719 C 68.824219 54.457031 69.109375 54.402344 69.277344 54.382812 C 69.324219 54.367188 69.410156 54.324219 69.484375 54.242188 C 69.53125 54.1875 69.558594 54.132812 69.570312 54.09375 C 69.601562 54.128906 69.652344 54.171875 69.722656 54.210938 C 69.804688 54.25 69.878906 54.265625 69.925781 54.269531 L 70.15625 54.261719 C 70.503906 54.253906 70.65625 53.820312 70.386719 53.601562 L 70.195312 53.351562 C 69.921875 53 69.855469 52.566406 69.960938 52.175781 C 70.132812 51.546875 70.695312 51.308594 70.757812 51.28125 C 70.894531 51.214844 71.042969 51.152344 71.195312 51.089844 C 71.371094 51.019531 71.578125 50.914062 71.742188 50.859375 C 72.859375 50.410156 74.007812 50.183594 75.214844 50.128906 C 75.253906 50.128906 75.292969 50.125 75.335938 50.125 C 76.058594 50.101562 76.703125 50.148438 77.253906 50.222656 C 78.042969 50.3125 79.78125 50.621094 81.46875 51.910156 C 82.785156 52.917969 83.496094 54.085938 83.847656 54.761719 C 84.035156 55.175781 84.246094 55.730469 84.375 56.402344 C 84.519531 57.164062 84.515625 57.824219 84.476562 58.308594 Z M 84.476562 58.308594 "/>
</g>
</svg>
